<svg xmlns="http://www.w3.org/2000/svg" width="193" height="137" viewBox="0 0 193 137">
  <g id="Group_35" data-name="Group 35" transform="translate(48.661 -33.858)">
    <g id="Group_33" data-name="Group 33" transform="translate(19.339 33.858)">
      <g id="Path_1803" data-name="Path 1803" transform="translate(26.867 37.327)">
        <path id="Path_1916" data-name="Path 1916" d="M0-37.327,29.133-28.88V10.214H0Z" fill="none"/>
        <path id="Path_1917" data-name="Path 1917" d="M6-29.34V4.214H23.133V-24.372L6-29.34M0-37.327,29.133-28.88V10.214H0Z" fill="#fff"/>
      </g>
      <path id="Path_1804" data-name="Path 1804" d="M0,0,5.692,1.62V42.769H0Z" transform="translate(19.448 4.772)" fill="#fff"/>
      <path id="Path_1805" data-name="Path 1805" d="M0,0,5.074,1.444V38.123H0Z" transform="translate(12.424 9.418)" fill="#fff" opacity="0.9"/>
      <path id="Path_1806" data-name="Path 1806" d="M0,0,4.484,1.276V33.691H0Z" transform="translate(5.844 13.85)" fill="#fff" opacity="0.8"/>
      <path id="Path_1807" data-name="Path 1807" d="M0,0,3.925,1.117V29.492H0Z" transform="translate(0 18.049)" fill="#fff" opacity="0.7"/>
    </g>
    <text id="window" transform="translate(-48.661 126.586)" fill="#fff" font-size="40" font-family="SegoeUI, Segoe UI" letter-spacing="0.1em"><tspan x="0" y="0">WINDOW</tspan></text>
    <text id="bakuriani" transform="translate(-12.661 164.858)" fill="#fff" font-size="23" font-family="SegoeUI-Bold, Segoe UI" font-weight="700" letter-spacing="0.1em"><tspan x="0" y="0">Bakuriani</tspan></text>
  </g>
</svg>
